<svg xmlns="http://www.w3.org/2000/svg" xmlns:xlink="http://www.w3.org/1999/xlink"><symbol class="arrow-long-download" id="sprite-arrow-long-bar-download" viewBox="0 -8 17 42"><title>Arrow Long Download Icon</title><g fill="#B88A1A" fill-rule="evenodd"><path d="M.514 30.922v2.003h16v-2.003z"/><path class="arrow-long-download__arrow" d="M7.264 0h2v25.741l5.734-6.88 1.54 1.28-8.274 9.921L0 20.141l1.533-1.28 5.731 6.88z"/></g></symbol><use class="arrow-long-download" xlink:href="#sprite-arrow-long-bar-download" width="17" height="42"/><view id="sprite-arrow-long-bar-download-svg" viewBox="0 0 17 42"/><symbol id="sprite-arrow-pagination-left" viewBox="0 0 54 21"><title>Combined Shape</title><defs><filter id="a" width="116%" height="148.2%" x="-6%" y="-12%" filterUnits="objectBoundingBox"><feOffset dx="1" dy="2" in="SourceAlpha" result="shadowOffsetOuter1"/><feGaussianBlur in="shadowOffsetOuter1" result="shadowBlurOuter1" stdDeviation="1"/><feColorMatrix in="shadowBlurOuter1" values="0 0 0 0 0 0 0 0 0 0 0 0 0 0 0 0 0 0 0.5 0"/></filter><path id="b" d="M4.667 9.5l7.6 5.7-1.2 1.6L0 8.5 11.067.2l1.2 1.6-7.6 5.7H50v2H4.667z"/></defs><g fill="none" transform="translate(1)"><use fill="#000" filter="url(#a)" xmlns:xlink="http://www.w3.org/1999/xlink" xlink:href="#b"/><use fill="#FFF" xlink:href="#b"/></g></symbol><use xlink:href="#sprite-arrow-pagination-left" y="42" width="54" height="21"/><view id="sprite-arrow-pagination-left-svg" viewBox="0 42 54 21"/><symbol id="sprite-arrow-pagination-right" viewBox="0 0 54 21"><title>Combined Shape</title><defs><filter id="a" width="116%" height="148.2%" x="-6%" y="-12%" filterUnits="objectBoundingBox"><feOffset dx="1" dy="2" in="SourceAlpha" result="shadowOffsetOuter1"/><feGaussianBlur in="shadowOffsetOuter1" result="shadowBlurOuter1" stdDeviation="1"/><feColorMatrix in="shadowBlurOuter1" values="0 0 0 0 0 0 0 0 0 0 0 0 0 0 0 0 0 0 0.5 0"/></filter><path id="b" d="M4.667 9.5l7.6 5.7-1.2 1.6L0 8.5 11.067.2l1.2 1.6-7.6 5.7H50v2H4.667z"/></defs><g fill="none" transform="matrix(-1 0 0 1 53 0)"><use fill="#000" filter="url(#a)" xlink:href="#b"/><use fill="#FFF" xlink:href="#b"/></g></symbol><use xlink:href="#sprite-arrow-pagination-right" y="63" width="54" height="21"/><view id="sprite-arrow-pagination-right-svg" viewBox="0 63 54 21"/><symbol id="sprite-arrow1-left-white" viewBox="0 0 17 32"><title>Arrow Left</title><path d="M14.947 31.643L.346 16.843a1.2 1.2 0 010-1.686L14.947.357a1.198 1.198 0 011.697-.01 1.2 1.2 0 01.01 1.696L2.887 16l13.769 13.957A1.201 1.201 0 0115.8 32c-.31 0-.619-.119-.854-.357z" fill="#FFF" fill-rule="evenodd"/></symbol><use xlink:href="#sprite-arrow1-left-white" y="84" width="17" height="32"/><view id="sprite-arrow1-left-white-svg" viewBox="0 84 17 32"/><symbol id="sprite-arrow1-left" viewBox="0 0 17 32"><title>Arrow Left</title><path d="M14.947 31.643L.346 16.843a1.2 1.2 0 010-1.686L14.947.357a1.198 1.198 0 011.697-.01 1.2 1.2 0 01.01 1.696L2.887 16l13.769 13.957A1.201 1.201 0 0115.8 32c-.31 0-.619-.119-.854-.357z" fill="#B88A1A" fill-rule="evenodd"/></symbol><use xlink:href="#sprite-arrow1-left" y="116" width="17" height="32"/><view id="sprite-arrow1-left-svg" viewBox="0 116 17 32"/><symbol id="sprite-arrow1-long-right-shadow" viewBox="0 0 58 24"><title>Arrow1 right shadow</title><filter x="-14%" y="-30.1%" width="127.9%" height="184.2%" filterUnits="objectBoundingBox" id="a"><feOffset dy="2" in="SourceAlpha" result="shadowOffsetOuter1"/><feGaussianBlur stdDeviation="2" in="shadowOffsetOuter1" result="shadowBlurOuter1"/><feColorMatrix values="0 0 0 0 0.580392157 0 0 0 0 0.580392157 0 0 0 0 0.580392157 0 0 0 0.5 0" in="shadowBlurOuter1"/></filter><use filter="url(#a)" xlink:href="#b"/><path fill="#FFF" id="b" d="M41.896 3.617L43.101 2l11.051 8.312-11.051 8.31-1.205-1.61 7.558-5.694H4v-2.01h45.454z"/></symbol><use xlink:href="#sprite-arrow1-long-right-shadow" y="148" width="58" height="24"/><view id="sprite-arrow1-long-right-shadow-svg" viewBox="0 148 58 24"/><symbol id="sprite-arrow1-long-right" viewBox="0 0 59 17"><title>arrow1-long-right</title><path fill="#FFF" d="M47.363 1.517L48.632 0l9.951 8.289-9.951 8.256-1.269-1.533 6.858-5.711H0V7.265h54.221z"/></symbol><use xlink:href="#sprite-arrow1-long-right" y="172" width="59" height="17"/><view id="sprite-arrow1-long-right-svg" viewBox="0 172 59 17"/><symbol id="sprite-arrow1-right-white" viewBox="0 0 17 32"><title>Icon</title><path d="M2.053 31.643l14.601-14.8a1.2 1.2 0 000-1.686L2.053.357A1.198 1.198 0 00.356.347a1.201 1.201 0 00-.01 1.696L14.113 16 .345 29.957A1.201 1.201 0 001.2 32c.31 0 .619-.119.854-.357z" fill="#FFF" fill-rule="evenodd"/></symbol><use xlink:href="#sprite-arrow1-right-white" y="189" width="17" height="32"/><view id="sprite-arrow1-right-white-svg" viewBox="0 189 17 32"/><symbol id="sprite-arrow1-right" viewBox="0 0 17 32"><title>Icon</title><path d="M2.053 31.643l14.601-14.8a1.2 1.2 0 000-1.686L2.053.357A1.198 1.198 0 00.356.347a1.201 1.201 0 00-.01 1.696L14.113 16 .345 29.957A1.201 1.201 0 001.2 32c.31 0 .619-.119.854-.357z" fill="#B88A1A" fill-rule="evenodd"/></symbol><use xlink:href="#sprite-arrow1-right" y="221" width="17" height="32"/><view id="sprite-arrow1-right-svg" viewBox="0 221 17 32"/><symbol id="sprite-arrow2-right" viewBox="0 0 13 9"><title>Arrow Right Icon</title><path d="M.5 4.5h12M8 8.5l5-4-5-4" fill="none" fill-rule="evenodd" stroke="#B88A1A" opacity=".795"/></symbol><use xlink:href="#sprite-arrow2-right" y="253" width="13" height="9"/><view id="sprite-arrow2-right-svg" viewBox="0 253 13 9"/><symbol id="sprite-check-1" viewBox="0 0 23 19"><title>Path 2</title><path fill="#B88A1A" d="M4.729 7.707L.24 10.999l7.554 7.404L22.221 3.561 19.519 0 7.794 12.837z"/></symbol><use xlink:href="#sprite-check-1" y="262" width="23" height="19"/><view id="sprite-check-1-svg" viewBox="0 262 23 19"/><symbol id="sprite-close-red" viewBox="0 0 20 20"><title>close-red</title><path fill="#ab1410" d="M0 2.414L1.414 1l7.071 7.067L15.556 1l1.415 1.414-7.068 7.071 7.068 7.071-1.415 1.415-7.071-7.077-7.071 7.077L0 16.556l7.066-7.071z"/></symbol><use xlink:href="#sprite-close-red" y="281" width="17" height="20"/><view id="sprite-close-red-svg" viewBox="0 281 17 20"/><symbol id="sprite-close" viewBox="0 0 20 20"><title>Close icon</title><path fill="#FFF" d="M0 2.414L1.414 1l7.071 7.067L15.556 1l1.415 1.414-7.068 7.071 7.068 7.071-1.415 1.415-7.071-7.077-7.071 7.077L0 16.556l7.066-7.071z"/></symbol><use xlink:href="#sprite-close" y="301" width="17" height="20"/><view id="sprite-close-svg" viewBox="0 301 17 20"/><symbol id="sprite-eye" viewBox="0 0 18 10"><title>Eye Icon</title><path fill="#B88A1A" fill-rule="evenodd" d="M9 10a4 4 0 110-8 4 4 0 010 8zM7.5 6a1.5 1.5 0 100-3 1.5 1.5 0 000 3zm9.467 1c.022-.165.033-.331.033-.5C17 3.462 13.418 1 9 1S1 3.462 1 6.5c0 .169.011.335.033.5H.026A4.772 4.772 0 010 6.5C0 2.91 4.03 0 9 0s9 2.91 9 6.5c0 .168-.009.335-.026.5h-1.007z"/></symbol><use xlink:href="#sprite-eye" y="321" width="18" height="10"/><view id="sprite-eye-svg" viewBox="0 321 18 10"/><symbol id="sprite-facebook" viewBox="0 0 11 20"><title>Faacebook</title><path fill="#B88A1A" fill-rule="evenodd" d="M7.14 20v-9.123h3.243l.486-3.555h-3.73v-2.27c0-1.03.304-1.731 1.867-1.731L11 3.32V.14A28.246 28.246 0 008.094 0C5.22 0 3.251 1.657 3.251 4.7v2.622H0v3.555h3.251V20H7.14z"/></symbol><use xlink:href="#sprite-facebook" y="331" width="11" height="20"/><view id="sprite-facebook-svg" viewBox="0 331 11 20"/><symbol class="brand-wrap__svg fox-blocks-logo" id="sprite-fox-blocks-logo" viewBox="0 0 244 72"><title>Fox Blocks</title><defs><path id="a" d="M.069 0h64.816v72H.069z"/></defs><path class="fbl__r logo-el" fill="#FEFEFE" d="M241.117 42.448h-.204v-.53a1.04 1.04 0 01.237-.021c.273 0 .396.11.396.28 0 .192-.192.27-.429.27m.503.138v-.025c.225-.067.387-.226.387-.442a.502.502 0 00-.183-.391c-.135-.091-.293-.145-.638-.145-.309 0-.546.03-.714.066v1.834h.43v-.73h.2c.237 0 .353.088.384.293.06.215.092.37.147.437h.464c-.048-.054-.08-.168-.138-.451-.054-.244-.153-.391-.339-.446m-.414 1.418c-.832 0-1.443-.655-1.443-1.478 0-.81.61-1.476 1.423-1.476h.009c.822 0 1.418.665 1.418 1.476 0 .823-.596 1.487-1.407 1.478m0-3.325h-.011c-1.058 0-1.903.823-1.903 1.847 0 1.05.845 1.86 1.903 1.86 1.07 0 1.892-.81 1.892-1.86 0-1.024-.821-1.847-1.881-1.847"/><g class="fbl__large" fill="#FEFEFE"><path class="fbl__large-text fbl__large-fox logo-el" d="M0 44.222h7.156v-7.787h7.982v-5.227H7.156v-2.366h7.982v-5.213H0zm32.54-7.962c-.33.631-.8 1.113-1.44 1.471-.642.361-1.446.545-2.388.545-1.37 0-2.407-.38-3.174-1.164-.771-.787-1.146-1.802-1.146-3.1s.373-2.312 1.139-3.095c.762-.779 1.803-1.157 3.18-1.157.725 0 1.366.108 1.904.32.528.21.979.503 1.34.872.36.367.632.807.81 1.308.187.521.28 1.11.28 1.751 0 .848-.17 1.604-.505 2.248zm7.773-2.249c0-1.4-.25-2.755-.74-4.026a9.75 9.75 0 00-2.191-3.385c-.962-.967-2.198-1.74-3.676-2.3-1.463-.554-3.143-.835-4.994-.835-2.484 0-4.63.493-6.375 1.466-1.76.982-3.086 2.298-3.94 3.912a10.924 10.924 0 00-1.273 5.168c0 1.825.43 3.561 1.28 5.162.859 1.618 2.183 2.938 3.938 3.923 1.742.98 3.886 1.475 6.37 1.475 2.453 0 4.575-.476 6.306-1.415 1.746-.947 3.082-2.247 3.969-3.864.88-1.602 1.326-3.379 1.326-5.28z"/><path class="fbl__large-text fbl__large-fox logo-el" d="M54.837 23.728l-1.713 2.06c-.503.594-1.148 1.458-1.925 2.57a120.962 120.962 0 00-2.17-2.772l-1.522-1.858h-9.19l8.365 9.916-8.708 10.677h9.09l1.968-2.417c.59-.73 1.331-1.69 2.208-2.864.25.311.563.692.936 1.143.936 1.128 1.14 1.383 1.212 1.482l2.243 2.656h9.227l-9.033-10.694 7.95-9.899h-8.938z"/><g class="fbl__large-blocks-group"><path class="fbl__large-text fbl__large-blocks logo-el" d="M134.163 32.834c-.088.082-.178.16-.267.234.852.457 1.548.994 2.079 1.602.797.915 1.2 2.1 1.2 3.52 0 1.851-.65 3.358-1.931 4.48-1.257 1.095-3.006 1.651-5.2 1.651h-11.796l-.001-18.542v-2.05h9.979c1.254 0 2.368.123 3.313.368.973.252 1.777.61 2.39 1.061.632.466 1.113 1.028 1.428 1.67.313.636.472 1.34.472 2.09 0 .798-.161 1.55-.48 2.234-.313.673-.712 1.24-1.186 1.682zm-7.076 6.9c2.904 0 2.904-1.248 2.904-1.78 0-.538 0-1.795-2.904-1.795h-1.683v3.574h1.683zm-1.683-11.418v3.255h.573c1.504 0 2.218-.207 2.554-.38.127-.068.517-.27.517-1.247 0-.869-.31-1.125-.542-1.24-.354-.178-1.083-.388-2.557-.388h-.545zm20.467-4.588h-7.156v20.593h15.97v-5.962h-8.814zm24.965 12.532a3.507 3.507 0 01-1.439 1.471c-.644.361-1.447.545-2.389.545-1.369 0-2.407-.38-3.175-1.164-.77-.787-1.145-1.8-1.145-3.1s.373-2.312 1.139-3.095c.762-.779 1.803-1.157 3.181-1.157.725 0 1.365.108 1.902.32.529.21.98.503 1.342.872.364.372.629.8.81 1.308.187.521.28 1.11.28 1.751 0 .848-.17 1.604-.506 2.248m4.842-9.659c-.962-.967-2.198-1.74-3.676-2.3-1.463-.554-3.144-.835-4.994-.835-2.484 0-4.629.493-6.376 1.466-1.76.982-3.085 2.298-3.939 3.912a10.936 10.936 0 00-1.273 5.168c0 1.826.431 3.562 1.28 5.162.858 1.617 2.183 2.937 3.938 3.923 1.742.98 3.885 1.475 6.37 1.475 2.453 0 4.575-.476 6.306-1.415 1.745-.946 3.081-2.246 3.97-3.864.879-1.603 1.325-3.38 1.325-5.28 0-1.402-.248-2.756-.739-4.027a9.736 9.736 0 00-2.192-3.385m21.42 11.106c-.528.258-1.196.497-1.984.712a9.45 9.45 0 01-2.473.316c-1.043 0-1.987-.215-2.806-.639-.82-.425-1.442-.978-1.9-1.693a4.166 4.166 0 01-.67-2.307c0-.965.25-1.781.761-2.493a5.154 5.154 0 012.078-1.681 6.824 6.824 0 012.856-.605c1.161 0 2.177.181 3.02.536.894.379 1.813.86 2.731 1.431l1.033.642V25.12l-.452-.159c-2.826-.993-5.4-1.496-7.65-1.496-1.523 0-2.99.208-4.365.618a11.027 11.027 0 00-3.755 1.945 9.118 9.118 0 00-2.6 3.348c-.613 1.329-.924 2.888-.924 4.635 0 1.523.262 2.946.778 4.231a9.38 9.38 0 002.361 3.408 10.476 10.476 0 003.694 2.19c1.392.486 2.983.731 4.727.731.932 0 1.845-.055 2.715-.164a16.246 16.246 0 002.63-.558 14.583 14.583 0 002.562-1.048l.363-.19v-6.509l-1.038.654c-.58.366-1.149.685-1.692.95m25.967-13.978h-8.028l-5.968 7.372v-7.372h-7.157v20.593h7.157v-7.786l6.359 7.786h8.823l-8.883-10.912zm15.71 11.223c-.555-.799-1.324-1.509-2.286-2.11-.907-.568-2.127-1.21-3.621-1.91-.966-.463-1.395-.754-1.586-.918-.221-.189-.25-.352-.25-.472 0-.209.075-.363.25-.513.11-.095.404-.253 1.128-.253.998 0 1.947.203 2.82.604.924.425 1.772.912 2.519 1.448l1.07.77v-6.193l-.3-.202c-.258-.17-.692-.389-1.327-.667-.627-.275-1.427-.524-2.376-.74a14.136 14.136 0 00-3.128-.33c-1.602 0-2.99.274-4.123.816-1.162.555-2.042 1.316-2.618 2.264-.572.942-.862 2.006-.862 3.163 0 1.201.29 2.263.864 3.155a7.256 7.256 0 002.148 2.165c.826.543 1.797 1.05 2.897 1.514.899.358 1.584.702 2.037 1.026.413.294.466.56.466.76 0 .041-.02.195-.266.473-.024.028-.27.266-1.417.266a7.005 7.005 0 01-2.755-.543 20.609 20.609 0 01-2.775-1.452l-1.033-.639v6.377l.406.178a18.83 18.83 0 003.103 1.065c1.003.241 1.789.385 2.404.44.593.052 1.106.078 1.524.078 1.51 0 2.874-.254 4.054-.754 1.215-.515 2.179-1.274 2.865-2.255.694-.992 1.046-2.173 1.046-3.512 0-1.217-.295-2.26-.878-3.099"/></g></g><g class="fbl__bottom" fill="#FEFEFE"><path class="fbl__bottom-text logo-el" d="M111.203 62.354l1.094-2.936 1.096 2.936h-2.19zm.815-3.386l-2.197 5.591h.543l.66-1.755h2.547l.645 1.755h.543l-2.143-5.59h-.598zm4.489 0h-.528v5.591h3.525v-.45h-2.997zm4.783 0h-.528v5.591h3.525v-.45h-2.997zm10.156 2.998a1.83 1.83 0 00-.517-.272 6.248 6.248 0 00-.601-.175 45.369 45.369 0 00-.61-.139 3.135 3.135 0 01-.547-.17 1.383 1.383 0 01-.42-.269.754.754 0 01-.217-.435.981.981 0 01.248-.831c.109-.119.256-.216.439-.292a1.83 1.83 0 01.68-.11 1.9 1.9 0 01.512.068c.166.046.313.12.443.217.129.098.232.226.307.381.075.155.112.34.112.551h.505a1.77 1.77 0 00-.117-.644 1.474 1.474 0 00-.35-.532 1.639 1.639 0 00-.585-.36 2.337 2.337 0 00-.827-.133c-.311 0-.585.041-.823.124a1.75 1.75 0 00-.594.333 1.375 1.375 0 00-.477 1.042c0 .274.048.5.147.68.098.178.226.323.384.438.158.114.339.204.544.271.204.068.414.126.628.175.215.05.425.1.63.152.204.051.385.12.544.205.157.085.285.196.383.33.099.135.148.311.148.528 0 .156-.027.303-.081.443a.996.996 0 01-.253.37c-.114.105-.261.19-.442.251a1.976 1.976 0 01-.645.094c-.213 0-.412-.025-.598-.074a1.402 1.402 0 01-.493-.237 1.257 1.257 0 01-.35-.423 1.66 1.66 0 01-.166-.633h-.513c0 .305.05.571.152.796.1.225.24.414.423.567.18.152.395.266.644.341.249.076.518.113.808.113.647 0 1.149-.142 1.506-.427.357-.285.536-.686.536-1.204 0-.269-.045-.493-.136-.672a1.261 1.261 0 00-.361-.438m2.462-.078h2.881v-.45h-2.881v-2.019h3.192v-.451h-3.72v5.591h3.797v-.45h-3.269zm6.366-2.92h.598l2.143 5.591h-.542l-.646-1.755h-2.547l-.66 1.755h-.543l2.197-5.59zm-.815 3.386h2.19l-1.095-2.936-1.095 2.936zm8.053-.388a1.83 1.83 0 00-.517-.272 6.248 6.248 0 00-.601-.175 45.369 45.369 0 00-.61-.139 3.162 3.162 0 01-.547-.17 1.383 1.383 0 01-.42-.269.754.754 0 01-.217-.435.981.981 0 01.248-.831c.109-.119.256-.216.44-.292a1.82 1.82 0 01.679-.11 1.9 1.9 0 01.512.068c.166.046.313.12.443.217.129.098.232.226.307.381.075.155.112.34.112.551h.505a1.77 1.77 0 00-.117-.644 1.474 1.474 0 00-.35-.532 1.639 1.639 0 00-.585-.36 2.337 2.337 0 00-.827-.133c-.311 0-.585.041-.823.124a1.75 1.75 0 00-.594.333 1.375 1.375 0 00-.477 1.042c0 .274.048.5.147.68.098.178.226.323.384.438.158.114.339.204.544.271.204.068.414.126.628.175.215.05.425.1.63.152.204.051.385.12.544.205.157.085.285.196.383.33.099.135.148.311.148.528 0 .156-.027.303-.081.443a.996.996 0 01-.253.37c-.114.105-.261.19-.442.251a1.976 1.976 0 01-.645.094c-.213 0-.412-.025-.598-.074a1.402 1.402 0 01-.493-.237 1.255 1.255 0 01-.35-.423 1.643 1.643 0 01-.166-.633h-.513c0 .305.05.571.152.796.1.225.24.414.423.567.18.152.395.266.644.341.249.076.518.113.808.113.647 0 1.149-.142 1.506-.427.357-.285.536-.686.536-1.204 0-.269-.045-.493-.136-.672a1.261 1.261 0 00-.361-.438zm6.278.745a2.328 2.328 0 01-.374.792 1.855 1.855 0 01-.644.548c-.26.137-.573.205-.935.205-.368 0-.683-.066-.944-.2a1.832 1.832 0 01-.644-.545 2.337 2.337 0 01-.374-.792c-.079-.3-.12-.616-.12-.948 0-.326.041-.639.12-.939.081-.3.205-.565.374-.796.168-.23.383-.416.644-.555.261-.14.571-.209.928-.209.321 0 .611.056.87.17.26.114.478.28.66.497.181.217.32.48.415.788.096.308.144.656.144 1.044 0 .327-.04.64-.12.94zm-.016-3.032a2.33 2.33 0 00-.823-.629 2.69 2.69 0 00-1.145-.229c-.42 0-.79.077-1.11.233-.322.155-.59.365-.808.633a2.756 2.756 0 00-.494.936 3.839 3.839 0 00-.166 1.148c0 .404.054.784.162 1.138.11.354.273.665.49.932.217.266.49.477.815.633.326.155.704.233 1.134.233.43 0 .808-.078 1.133-.233.327-.156.6-.367.816-.633.218-.267.382-.578.493-.932.111-.354.167-.734.167-1.138a3.88 3.88 0 00-.167-1.152 2.702 2.702 0 00-.497-.94zm6.007 4.174h-.015l-3.231-4.884h-.598v5.59h.529v-4.876h.015l3.215 4.876h.613v-5.59h-.528zm8.344-4.419c.138.145.233.312.287.501.055.19.082.387.082.594 0 .311-.063.567-.191.77-.126.201-.29.36-.492.476a2.109 2.109 0 01-.687.245 4.29 4.29 0 01-.773.07h-1.196v2.47h-.528v-5.592h2.042c.362 0 .66.041.897.125.236.082.422.196.559.341zm-.272 1.635c.075-.147.113-.34.113-.579 0-.35-.115-.618-.346-.8-.23-.18-.597-.27-1.1-.27h-1.365v2.22h1.21c.25 0 .472-.016.669-.047.196-.03.364-.089.5-.174a.874.874 0 00.319-.35zm5.972 3.118c.018.088.04.156.066.206.026.05.057.086.093.113v.046l-.582.008a1.032 1.032 0 01-.121-.388 7.885 7.885 0 01-.054-.521 17.07 17.07 0 01-.031-.528 3.021 3.021 0 00-.043-.42.87.87 0 00-.151-.36.71.71 0 00-.252-.206 1.098 1.098 0 00-.331-.093 3.072 3.072 0 00-.376-.024h-1.662v2.54l-.528-.008v-5.584h2.19c.615 0 1.087.116 1.413.346.327.23.489.605.489 1.123 0 .352-.071.63-.213.838-.143.207-.374.383-.696.528.166.057.296.14.389.248.093.109.163.234.21.374.046.14.076.287.088.442.014.155.023.306.028.45.005.213.014.389.027.529s.028.253.047.34zm-1.25-2.68c.168-.041.314-.106.438-.197a.976.976 0 00.295-.345 1.08 1.08 0 00.109-.505c0-.207-.038-.378-.112-.513a.857.857 0 00-.303-.318 1.28 1.28 0 00-.435-.163 2.722 2.722 0 00-.51-.047h-1.676v2.15h1.646c.197 0 .379-.02.548-.061zm7.259-1.827c.22.265.386.578.497.94.111.358.167.742.167 1.151 0 .404-.056.784-.167 1.138a2.764 2.764 0 01-.493.932 2.332 2.332 0 01-.816.633 2.605 2.605 0 01-1.133.233c-.43 0-.808-.078-1.134-.233a2.35 2.35 0 01-.816-.633 2.756 2.756 0 01-.489-.932 3.884 3.884 0 01-.162-1.138c0-.409.055-.792.166-1.148.112-.358.276-.67.493-.936.218-.268.487-.478.808-.633a2.51 2.51 0 011.111-.233c.434 0 .816.076 1.145.23.328.152.603.362.823.628zm.016 3.031c.08-.3.12-.613.12-.94 0-.388-.048-.736-.144-1.044a2.267 2.267 0 00-.415-.788 1.789 1.789 0 00-.66-.497 2.129 2.129 0 00-.87-.17c-.357 0-.667.07-.928.21a1.882 1.882 0 00-.644.554 2.376 2.376 0 00-.374.796c-.079.3-.12.613-.12.94 0 .331.041.647.12.947.081.3.205.564.374.792.168.228.383.41.644.544.261.135.576.201.944.201.362 0 .674-.068.935-.205.262-.137.476-.32.644-.548.17-.228.293-.49.374-.792zm1.658-3.292h1.771v5.141h.528v-5.141h1.77v-.451h-4.069zm5.816 2.469h2.881v-.45h-2.881v-2.019h3.191v-.451h-3.719v5.591h3.797v-.45h-3.269zm8.476 1.444a1.855 1.855 0 01-.374.485 1.621 1.621 0 01-.516.323 1.751 1.751 0 01-.652.116c-.383 0-.702-.072-.956-.217a1.71 1.71 0 01-.605-.57 2.425 2.425 0 01-.322-.804 4.327 4.327 0 01-.097-.917c0-.33.037-.645.112-.944.075-.297.192-.559.35-.787.158-.228.358-.41.601-.544a1.77 1.77 0 01.87-.202c.476 0 .862.101 1.157.303.295.202.497.541.606 1.017h.544a2.346 2.346 0 00-.253-.764 1.827 1.827 0 00-.466-.556 1.954 1.954 0 00-.652-.338 2.72 2.72 0 00-.796-.112 3.2 3.2 0 00-1.033.16 2.07 2.07 0 00-.823.511c-.233.236-.415.54-.547.913-.133.372-.199.825-.199 1.36 0 .397.045.774.132 1.13.088.353.23.665.424.934.194.27.443.483.75.641.305.158.672.237 1.102.237.372 0 .698-.054.975-.16.276-.105.512-.249.706-.43.194-.18.351-.393.47-.634.118-.24.21-.495.272-.764h-.552a2.412 2.412 0 01-.229.613m1.775-3.913h1.771v5.141h.528v-5.141h1.77v-.451h-4.069zm5.473 5.14h.528v-5.591h-.528zm6.785-1.848a2.346 2.346 0 01-.373.792 1.867 1.867 0 01-.645.548c-.261.137-.573.205-.935.205-.368 0-.683-.066-.944-.2a1.832 1.832 0 01-.644-.545 2.337 2.337 0 01-.374-.792 3.709 3.709 0 01-.12-.948c0-.326.04-.639.12-.939.08-.3.205-.565.374-.796.168-.23.383-.416.644-.555.26-.14.57-.209.928-.209.32 0 .61.056.87.17.259.114.478.28.66.497.18.217.319.48.415.788.096.308.144.656.144 1.044 0 .327-.04.64-.12.94m-.016-3.032a2.322 2.322 0 00-.823-.629 2.69 2.69 0 00-1.145-.229c-.42 0-.79.077-1.111.233-.321.155-.59.365-.807.633a2.756 2.756 0 00-.494.936 3.839 3.839 0 00-.166 1.148c0 .404.054.784.163 1.138.108.354.272.665.489.932.217.266.489.477.815.633.326.155.704.233 1.134.233.43 0 .808-.078 1.133-.233.327-.156.599-.367.816-.633.218-.267.382-.578.493-.932.11-.354.167-.734.167-1.138a3.88 3.88 0 00-.167-1.152 2.686 2.686 0 00-.497-.94m6.006 4.174h-.015l-3.231-4.884h-.598v5.59h.528v-4.876h.016l3.215 4.876h.613v-5.59h-.528zm6.383-5.032h-.396c-.212.28-.4.558-.562.834a5.85 5.85 0 00-.414.851 5.223 5.223 0 00-.344 1.91c0 .367.028.708.084 1.021.056.313.14.614.253.901.112.287.25.57.417.846.165.278.354.564.566.858h.396a7.802 7.802 0 01-.862-1.708 5.527 5.527 0 01-.326-1.879c0-.657.105-1.293.314-1.906.21-.614.5-1.19.874-1.728m1.723 5.738h.528v-5.591h-.528zm6.232-1.227a1.855 1.855 0 01-.373.485 1.621 1.621 0 01-.516.323 1.753 1.753 0 01-.653.116c-.382 0-.7-.072-.955-.217a1.71 1.71 0 01-.605-.57 2.448 2.448 0 01-.323-.804 4.392 4.392 0 01-.096-.917c0-.33.037-.645.112-.944.075-.297.192-.559.35-.787.157-.228.358-.41.601-.544a1.77 1.77 0 01.87-.202c.476 0 .862.101 1.157.303.295.202.497.541.605 1.017h.545a2.346 2.346 0 00-.253-.764 1.827 1.827 0 00-.466-.556 1.954 1.954 0 00-.652-.338 2.72 2.72 0 00-.796-.112 3.2 3.2 0 00-1.033.16 2.07 2.07 0 00-.823.511c-.233.236-.415.54-.547.913-.133.372-.199.825-.199 1.36 0 .397.045.774.132 1.13.088.353.23.665.423.934.195.27.444.483.75.641.306.158.673.237 1.103.237.372 0 .698-.054.975-.16.276-.105.512-.249.706-.43.194-.18.351-.393.47-.634.118-.24.21-.495.271-.764h-.55a2.45 2.45 0 01-.23.613m2.225 1.227h.528v-2.67h2.796v-.451h-2.796v-2.019h3.075v-.45h-3.603zm6.019-4.034a5.322 5.322 0 00-.413-.846 12.006 12.006 0 00-.566-.858h-.396c.357.533.645 1.102.862 1.708.217.606.326 1.232.326 1.88 0 .657-.105 1.292-.314 1.906a6.998 6.998 0 01-.874 1.727h.396c.207-.279.394-.558.559-.834.166-.278.304-.56.417-.85.112-.29.197-.592.255-.905a5.35 5.35 0 00.089-1.006c0-.367-.03-.708-.09-1.02a5.122 5.122 0 00-.251-.902"/></g><g class="fbl__top" fill="#FEFEFE"><path class="fbl__top-text logo-el" d="M136.863 17.825c0-.973-.742-1.322-1.493-1.53-.75-.208-1.508-.29-1.538-.669 0-.297.364-.357.587-.357.164 0 .35.037.483.134a.405.405 0 01.193.423h1.545c-.044-1.292-1.062-1.73-2.214-1.73-1.09 0-2.139.527-2.139 1.753 0 1.07.958 1.3 1.798 1.538.914.26 1.144.334 1.144.61 0 .392-.409.482-.676.482-.304 0-.66-.068-.78-.387a.98.98 0 01-.059-.349h-1.635c.015 1.694 1.731 1.91 2.333 1.91 1.181 0 2.451-.447 2.451-1.828m3.164 1.827c1.62 0 2.414-.706 2.414-2.177v-3.253h-1.634v2.89c0 .542 0 1.218-.773 1.218-.795 0-.795-.676-.795-1.219v-2.889h-1.634v3.253c0 1.471.802 2.177 2.422 2.177m7.948-1.827c0-.973-.743-1.322-1.493-1.53-.751-.208-1.508-.29-1.538-.669 0-.297.364-.357.587-.357.164 0 .349.037.483.134a.405.405 0 01.193.423h1.545c-.044-1.292-1.062-1.73-2.214-1.73-1.092 0-2.14.527-2.14 1.753 0 1.07.959 1.3 1.799 1.538.914.26 1.144.334 1.144.61 0 .392-.41.482-.676.482-.305 0-.661-.068-.78-.387a.958.958 0 01-.06-.349h-1.634c.015 1.694 1.73 1.91 2.333 1.91 1.18 0 2.45-.447 2.45-1.828m2.006 1.701h1.634v-3.945h1.486v-1.359h-4.606v1.359h1.486zm5.185-1.894l.513-1.635h.015l.475 1.635h-1.003zm1.552 1.894h1.695l-1.932-5.304h-1.597l-1.954 5.304h1.642l.238-.758h1.686l.222.758zm2.317 0h1.635v-5.304h-1.635zm7.517 0v-5.304h-1.545v2.838h-.015l-1.545-2.838h-1.672v5.304h1.546v-2.897h.015l1.626 2.897zm4.419 0l-.222-.758h-1.687l-.237.758h-1.642l1.954-5.304h1.597l1.931 5.304h-1.694zm-1.552-1.894h1.003l-.476-1.635h-.015l-.512 1.635zm5.503.632v-.988h1.025c.386 0 .572.17.572.483 0 .408-.297.505-.639.505h-.958zm0-2.78h.861c.335 0 .557.098.557.365 0 .342-.214.438-.557.438h-.86v-.802zm3.231 2.43c0-.78-.445-1.158-.92-1.322.393-.215.653-.505.653-1.04 0-.542-.297-1.33-1.694-1.33h-2.905v5.305h3.01c.935 0 1.856-.55 1.856-1.612zm4.881.253h-2.347v-3.945h-1.635v5.304h3.982zm5.429 0h-2.837v-.662h2.503v-1.262h-2.503v-.661h2.755v-1.36h-4.39v5.304h4.472zm6.715-1.872c-.75-.208-1.508-.29-1.538-.67 0-.296.364-.355.587-.355.163 0 .349.037.483.133.134.09.222.223.193.424h1.545c-.044-1.293-1.062-1.731-2.214-1.731-1.092 0-2.14.527-2.14 1.753 0 1.07.959 1.3 1.799 1.538.914.26 1.144.334 1.144.609 0 .394-.41.483-.676.483-.305 0-.662-.067-.78-.387a.955.955 0 01-.06-.348h-1.634c.015 1.693 1.73 1.908 2.333 1.908 1.18 0 2.45-.445 2.45-1.827 0-.973-.742-1.322-1.492-1.53m4.79-2.199c1.612 0 2.69 1.159 2.69 2.778 0 1.62-1.078 2.778-2.69 2.778s-2.689-1.158-2.689-2.778c0-1.619 1.077-2.778 2.69-2.778zm0 4.234c.416 0 1.055-.274 1.055-1.456 0-1.181-.639-1.456-1.055-1.456-.416 0-1.055.275-1.055 1.456 0 1.182.64 1.456 1.055 1.456zm7.621-.163h-2.348v-3.945h-1.634v5.304h3.982zm5.772-.691v-3.253h-1.635v2.888c0 .543 0 1.218-.773 1.218-.795 0-.795-.675-.795-1.218v-2.889h-1.634v3.254c0 1.47.802 2.177 2.422 2.177s2.414-.706 2.414-2.177m.838-1.895h1.486v3.946h1.635v-3.946h1.485v-1.358h-4.606zm5.467 3.945h1.635v-5.304h-1.635zm5.266-1.196c-.415 0-1.054-.274-1.054-1.456 0-1.181.639-1.456 1.055-1.456.416 0 1.055.275 1.055 1.456 0 1.182-.64 1.456-1.055 1.456m2.689-1.456c0-1.619-1.077-2.778-2.69-2.778s-2.688 1.159-2.688 2.778c0 1.62 1.077 2.778 2.689 2.778s2.689-1.158 2.689-2.778m5.734-2.652h-1.545v2.838h-.015l-1.545-2.838h-1.672v5.304h1.546v-2.897h.015l1.626 2.897h1.59zm5.563 3.603c0-.973-.743-1.322-1.493-1.53-.75-.208-1.508-.29-1.538-.669 0-.297.364-.357.587-.357.164 0 .349.037.483.134a.405.405 0 01.193.423h1.545c-.044-1.292-1.062-1.73-2.214-1.73-1.092 0-2.139.527-2.139 1.753 0 1.07.958 1.3 1.798 1.538.914.26 1.144.334 1.144.61 0 .392-.409.482-.676.482-.305 0-.661-.068-.78-.387a.98.98 0 01-.059-.349h-1.635c.015 1.694 1.731 1.91 2.333 1.91 1.181 0 2.451-.447 2.451-1.828"/></g><path class="fbl__red-line logo-el fbl__line" fill="#BD3727" d="M0 54.049v1.216l239.01 1.094v-2.31z"/><path class="fbl__green-line logo-el fbl__line" fill="#6BA755" d="M.001 48.067v5.375H239.12v-5.445z"/><g class="fbl__foxface logo-el"><g transform="translate(57)"><mask id="b" fill="#fff"><use xlink:href="#a"/></mask><path fill="#231F20" d="M32.497 13.809c-3.576 0-6.14.678-8.262 2.022 0 0-17.206-15.482-21.714-15.828-.457-.035-.888.232-1.315.856C-.075 4.726-2.39 18.392 8.323 34.031c0 0-.616.246-1.355.614 0 0 2.279 5.1 4.15 7.545 0 0-1.503-.004-2.986.645 0 0 6.719 6.611 8.369 8.604 0 0-2.608.352-3.358.991 2.513 1.049 9.34 4.838 11.665 10.801.975 3.151 1.787 5.69 4.299 8.004.394.419 1.13.765 3.37.765s2.978-.346 3.37-.765c2.513-2.314 3.326-4.853 4.3-8.004 2.325-5.963 9.152-9.752 11.665-10.801-.751-.639-2.775-.938-2.775-.938 1.649-1.994 7.648-8.707 7.648-8.707-1.3-.434-2.847-.595-2.847-.595 1.64-2.012 4.149-7.545 4.149-7.545-.74-.368-1.355-.614-1.355-.614C67.344 18.392 65.03 4.726 63.749.859c-.427-.624-.857-.891-1.315-.856C57.926.349 40.72 15.831 40.72 15.831c-2.124-1.344-4.687-2.022-8.263-2.022" mask="url(#b)"/></g><path fill="#BD3727" d="M108.811 31.692c6.132-13.127 2.406-14.512-2.63-8.196 2.24-5.91 8.666-13.596 9.848-12.857 1.996.836-.15 14.36-7.217 21.053m-8.23 9.77a2.43 2.43 0 01-2.43 2.43 2.43 2.43 0 01-2.433-2.43c0-.32.066-.624.178-.903a8.419 8.419 0 00-1.908.946c1.06-1.815 2.882-3.015 4.95-3.015 2.07 0 3.89 1.2 4.95 3.015a8.705 8.705 0 00-3.708-1.378c.252.383.401.84.401 1.335m-17.524-.903a2.43 2.43 0 01-2.254 3.333 2.43 2.43 0 01-2.03-3.765 8.71 8.71 0 00-3.71 1.378c1.06-1.815 2.882-3.015 4.952-3.015 2.068 0 3.888 1.2 4.948 3.015a8.398 8.398 0 00-1.906-.946m-12.915-8.867C63.076 25 60.93 11.475 62.925 10.639c1.182-.74 7.609 6.947 9.85 12.857-5.038-6.316-8.763-4.931-2.631 8.196m49.791-28.567c-.93-4.773-12.68 9.81-18.713 19.626-2.55-5.686-6.721-7.745-11.744-7.745s-9.195 2.059-11.745 7.745c-6.034-9.815-17.785-24.4-18.714-19.626-1.714 7.19.259 20.317 8.423 31.349-.825.177-1.388.478-1.388.478s1.85 5.036 4.152 8.169c.007 0 .012-.002.012-.002s4.846 7.496 10.585 8.573c.834 4.049.912 6.654 1.8 9.9 1.229.717 4.27-.797 6.875-.82 2.495.022 5.503 1.41 6.846.896.908-3.282.981-5.895 1.82-9.976 5.745-1.42 10.592-8.573 10.592-8.573l.012.002c2.302-3.133 4.152-8.17 4.152-8.17s-.563-.3-1.387-.477c8.164-11.032 10.136-24.16 8.422-31.35"/><path fill="#FEFEFE" d="M103.335 52.466c1.97-2.682 7.54-9 7.54-9s-1.083-.285-2.305-.11c-.892 1.243-5.3 7.068-10.424 8.335.153 2.822.258 3.912.252 6.398 2.488-3.276 5.766-4.889 6.935-5.514 0 0-.938-.305-1.998-.109M89.478 67.854c-1.845-.051-3.47-.667-3.52-2.292-.048-1.748 1.599-2.635 3.52-2.61 1.92-.025 3.567.862 3.518 2.61-.05 1.625-1.673 2.24-3.518 2.292m0-7.082c-2.615.022-5.662 1.538-6.88.8.072.264.15.533.234.808.008.024.019.046.027.07 2.164 6.163 3.519 8.1 6.619 8.1 3.1 0 4.353-1.112 6.618-8.1 0-.003.003-.006.004-.01.082-.265.157-.525.228-.781-1.34.523-4.35-.866-6.85-.887m-8.675-9.078v-.002c-5.134-.964-9.553-7.062-10.426-8.336-1.219-.173-2.298.109-2.298.109s5.571 6.319 7.54 9c-1.06-.195-1.997.11-1.997.11 1.178.63 4.418 2.287 6.93 5.61-.012-2.555.094-3.634.251-6.491"/></g></symbol><use class="brand-wrap__svg fox-blocks-logo" xlink:href="#sprite-fox-blocks-logo" y="351" width="244" height="72"/><view id="sprite-fox-blocks-logo-svg" viewBox="0 351 244 72"/><symbol id="sprite-fox-circle-placeholder" viewBox="0 0 82 82"><title>Foxblock Placeholder</title><defs><path id="a" d="M25.033 22h32.912v38.187H25.033z"/></defs><circle cx="41" cy="41" r="41" fill="#EEE"/><mask id="b" fill="#fff"><use xlink:href="#a"/></mask><path fill="#231F20" d="M41.499 29.324c-1.816 0-3.117.36-4.195 1.072 0 0-8.737-8.21-11.026-8.394-.232-.019-.451.123-.668.454-.65 2.05-1.825 9.299 3.614 17.593 0 0-.313.13-.688.326 0 0 1.157 2.705 2.108 4.002 0 0-.764-.002-1.517.342 0 0 3.412 3.506 4.25 4.563 0 0-1.325.187-1.706.526 1.277.556 4.743 2.566 5.924 5.728.495 1.672.907 3.018 2.183 4.246.2.222.573.405 1.711.405 1.138 0 1.512-.183 1.711-.405 1.276-1.228 1.689-2.574 2.183-4.246 1.18-3.162 4.648-5.172 5.924-5.728-.382-.34-1.41-.498-1.41-.498.838-1.057 3.884-4.618 3.884-4.618-.66-.23-1.446-.315-1.446-.315.834-1.067 2.107-4.002 2.107-4.002-.375-.195-.688-.326-.688-.326 5.44-8.294 4.264-15.542 3.614-17.593-.217-.331-.435-.473-.668-.454-2.289.183-11.025 8.394-11.025 8.394-1.079-.712-2.38-1.072-4.196-1.072" mask="url(#b)" opacity=".441"/><path fill="#C5C5C5" d="M50.535 38.851c2.866-6.608 1.125-7.305-1.23-4.126 1.048-2.975 4.051-6.844 4.603-6.472.933.42-.07 7.23-3.373 10.598M46.69 43.77c0 .676-.51 1.224-1.136 1.224-.628 0-1.137-.548-1.137-1.224 0-.16.03-.314.083-.454-.322.122-.622.28-.891.476.495-.914 1.346-1.518 2.312-1.518.968 0 1.819.604 2.314 1.518a3.894 3.894 0 00-1.733-.694c.118.193.188.424.188.672m-8.19-.454a1.3 1.3 0 01.083.454c0 .676-.509 1.224-1.136 1.224-.628 0-1.137-.548-1.137-1.224 0-.248.07-.479.188-.672a3.896 3.896 0 00-1.733.694c.494-.914 1.346-1.518 2.313-1.518.967 0 1.818.604 2.313 1.518a3.82 3.82 0 00-.891-.476m-6.035-4.464c-3.304-3.369-4.306-10.177-3.374-10.598.553-.372 3.556 3.497 4.604 6.472-2.355-3.18-4.096-2.482-1.23 4.126m23.269-14.38c-.435-2.404-5.926 4.938-8.746 9.88-1.19-2.863-3.14-3.9-5.488-3.9-2.347 0-4.297 1.037-5.489 3.9-2.819-4.942-8.31-12.284-8.745-9.88-.801 3.619.12 10.227 3.936 15.78-.385.09-.649.241-.649.241s.866 2.535 1.941 4.113l.005-.001s2.266 3.773 4.948 4.315c.389 2.039.425 3.35.84 4.984.575.361 1.996-.401 3.213-.413 1.167.011 2.572.71 3.2.451.424-1.652.458-2.967.85-5.022 2.685-.715 4.95-4.315 4.95-4.315h.006c1.076-1.577 1.94-4.112 1.94-4.112s-.263-.151-.648-.24c3.815-5.554 4.737-12.162 3.936-15.782" mask="url(#b)"/><path fill="#FEFEFE" d="M47.854 49.339c1.083-1.27 4.146-4.26 4.146-4.26s-.596-.135-1.268-.052c-.49.588-2.914 3.345-5.732 3.945.085 1.336.142 1.851.14 3.028 1.367-1.55 3.17-2.314 3.812-2.61 0 0-.515-.144-1.098-.051m-6.346 8.006c-.941-.031-1.769-.409-1.794-1.406-.025-1.073.814-1.617 1.794-1.601.979-.016 1.818.528 1.793 1.601-.025.997-.853 1.375-1.793 1.406m0-4.345c-1.334.013-2.887.944-3.508.49.037.163.076.328.12.497.003.014.009.028.013.043 1.103 3.78 1.794 4.97 3.375 4.97s2.219-.683 3.374-4.97l.002-.006c.042-.163.08-.323.116-.48-.683.321-2.218-.531-3.492-.544M38 48.947c-2.824-.454-5.256-3.321-5.736-3.92-.67-.082-1.264.05-1.264.05s3.065 2.972 4.148 4.234a2.882 2.882 0 00-1.099.05c.649.297 2.431 1.076 3.812 2.639-.006-1.202.053-1.709.139-3.053" mask="url(#b)"/></symbol><use xlink:href="#sprite-fox-circle-placeholder" y="423" width="82" height="82"/><view id="sprite-fox-circle-placeholder-svg" viewBox="0 423 82 82"/><symbol id="sprite-foxface" viewBox="0 0 65 72"><title>fox-blocks-logo__foxface-group</title><defs><path id="a" d="M.069 0h64.816v72H.069z"/></defs><g fill="none" fill-rule="evenodd"><g><mask id="b" fill="#fff"><use xlink:href="#a"/></mask><path fill="#231F20" d="M32.497 13.809c-3.576 0-6.14.678-8.262 2.022 0 0-17.206-15.482-21.714-15.828-.457-.035-.888.232-1.315.856C-.075 4.726-2.39 18.392 8.323 34.031c0 0-.616.246-1.355.614 0 0 2.279 5.1 4.15 7.545 0 0-1.503-.004-2.986.645 0 0 6.719 6.611 8.369 8.604 0 0-2.608.352-3.358.991 2.513 1.049 9.34 4.838 11.665 10.801.975 3.151 1.787 5.69 4.299 8.004.394.419 1.13.765 3.37.765 2.242 0 2.978-.346 3.37-.765 2.513-2.314 3.326-4.853 4.3-8.004 2.325-5.963 9.152-9.752 11.665-10.801-.751-.639-2.775-.938-2.775-.938 1.649-1.994 7.648-8.707 7.648-8.707-1.3-.434-2.847-.595-2.847-.595 1.64-2.012 4.149-7.545 4.149-7.545a20.223 20.223 0 00-1.355-.614C67.344 18.392 65.03 4.726 63.749.859c-.427-.624-.857-.891-1.315-.856C57.926.349 40.72 15.831 40.72 15.831c-2.124-1.344-4.687-2.022-8.263-2.022" mask="url(#b)"/></g><path fill="#BD3727" d="M51.812 31.692c6.132-13.127 2.406-14.512-2.631-8.196 2.24-5.91 8.666-13.596 9.849-12.857 1.995.836-.15 14.36-7.218 21.053m-8.23 9.77a2.43 2.43 0 01-2.43 2.43 2.43 2.43 0 01-2.433-2.43c0-.32.066-.624.178-.903a8.419 8.419 0 00-1.907.946c1.06-1.815 2.88-3.015 4.948-3.015 2.072 0 3.892 1.2 4.951 3.015a8.705 8.705 0 00-3.709-1.378c.254.383.403.84.403 1.335m-17.525-.903c.111.279.177.583.177.903a2.43 2.43 0 01-2.431 2.43 2.43 2.43 0 01-2.03-3.765 8.71 8.71 0 00-3.71 1.378c1.06-1.815 2.881-3.015 4.951-3.015s3.89 1.2 4.95 3.015a8.398 8.398 0 00-1.907-.946m-12.915-8.867C6.074 25 3.93 11.475 5.924 10.639c1.182-.74 7.61 6.947 9.851 12.857-5.039-6.316-8.764-4.931-2.632 8.196M62.936 3.125c-.93-4.773-12.681 9.81-18.715 19.626-2.548-5.686-6.72-7.745-11.743-7.745-5.024 0-9.196 2.059-11.745 7.745C14.699 12.936 2.948-1.65 2.02 3.125c-1.716 7.19.257 20.317 8.421 31.349a5.821 5.821 0 00-1.388.478s1.851 5.036 4.153 8.169a.033.033 0 00.011-.002s4.847 7.496 10.586 8.573c.834 4.049.912 6.654 1.8 9.9 1.228.717 4.27-.797 6.874-.82 2.497.022 5.505 1.41 6.848.896.907-3.282.98-5.895 1.82-9.976 5.744-1.42 10.591-8.573 10.591-8.573l.013.002c2.301-3.133 4.151-8.17 4.151-8.17s-.563-.3-1.386-.477c8.163-11.032 10.136-24.16 8.421-31.35"/><path fill="#FEFEFE" d="M46.336 52.466c1.97-2.682 7.54-9 7.54-9s-1.084-.285-2.306-.11c-.892 1.243-5.3 7.068-10.425 8.335.154 2.822.26 3.912.253 6.398 2.487-3.276 5.765-4.889 6.934-5.514 0 0-.937-.305-1.996-.109M32.478 67.854c-1.845-.051-3.47-.667-3.52-2.292-.048-1.748 1.599-2.635 3.52-2.61 1.92-.025 3.567.862 3.518 2.61-.05 1.625-1.673 2.24-3.518 2.292m0-7.082c-2.615.022-5.662 1.538-6.88.8.072.264.15.533.234.808.008.024.019.046.027.07 2.164 6.163 3.519 8.1 6.619 8.1 3.1 0 4.353-1.112 6.618-8.1 0-.003.003-.006.004-.01.082-.265.157-.525.228-.781-1.34.523-4.35-.866-6.85-.887m-8.675-9.078v-.002c-5.134-.964-9.553-7.062-10.426-8.336a6.521 6.521 0 00-2.298.109s5.571 6.319 7.54 9c-1.06-.195-1.997.11-1.997.11 1.178.63 4.418 2.287 6.93 5.61-.012-2.555.094-3.634.251-6.491"/></g></symbol><use xlink:href="#sprite-foxface" y="505" width="65" height="72"/><view id="sprite-foxface-svg" viewBox="0 505 65 72"/><symbol id="sprite-instagram" viewBox="0 0 19 19"><title>Instagram</title><path fill="#B88A1A" fill-rule="evenodd" d="M16.742 0H2.258A2.256 2.256 0 000 2.253v14.494A2.256 2.256 0 002.258 19h14.484A2.256 2.256 0 0019 16.747V2.253A2.256 2.256 0 0016.742 0zm-3.086 2.968c0-.327.266-.593.594-.593h1.781c.328 0 .594.266.594.593V4.75a.594.594 0 01-.594.594H14.25a.594.594 0 01-.594-.594V2.968zM9.522 5.877a3.65 3.65 0 013.654 3.645 3.65 3.65 0 01-3.654 3.645 3.65 3.65 0 01-3.654-3.645 3.65 3.65 0 013.654-3.645zm7.697 10.748a.594.594 0 01-.594.594H2.375a.594.594 0 01-.594-.594V7.719h2.375c-.31.445-.414 1.275-.414 1.803 0 3.18 2.593 5.766 5.78 5.766 3.187 0 5.78-2.587 5.78-5.766 0-.528-.075-1.345-.458-1.803h2.375v8.906z"/></symbol><use xlink:href="#sprite-instagram" y="577" width="19" height="19"/><view id="sprite-instagram-svg" viewBox="0 577 19 19"/><symbol id="sprite-phone-2" viewBox="0 0 24 24"><title>phone-2</title><path class="transition" fill="#FFF" d="M23.989 18.94c.05.39-.068.73-.356 1.018l-3.38 3.355c-.152.17-.35.314-.596.433a2.466 2.466 0 01-.724.228c-.017 0-.068.005-.153.013a3.457 3.457 0 01-.33.013c-.322 0-.843-.055-1.563-.165-.72-.11-1.6-.382-2.642-.814-1.042-.432-2.223-1.08-3.544-1.945-1.321-.864-2.727-2.05-4.218-3.56-1.186-1.169-2.168-2.287-2.947-3.355-.78-1.068-1.406-2.055-1.88-2.962C1.18 10.292.826 9.47.589 8.733a12.763 12.763 0 01-.483-1.907C.02 6.292-.013 5.873.004 5.568c.017-.305.026-.475.026-.509.034-.237.11-.478.228-.724.119-.246.263-.445.432-.598L4.07.356C4.306.119 4.577 0 4.881 0c.22 0 .415.064.585.19.17.128.313.285.432.471l2.718 5.161c.153.271.195.568.127.89a1.585 1.585 0 01-.432.813L7.067 8.771a.424.424 0 00-.089.165.628.628 0 00-.038.191c.068.356.22.763.458 1.22.203.407.516.903.94 1.488.423.584 1.025 1.258 1.804 2.02.762.78 1.44 1.386 2.032 1.819.593.432 1.089.75 1.487.953.398.203.703.326.914.369l.318.063a.605.605 0 00.165-.038.424.424 0 00.165-.089l1.448-1.475a1.56 1.56 0 011.067-.406c.288 0 .517.05.686.152h.026l4.903 2.899c.356.22.568.5.636.839z"/></symbol><use xlink:href="#sprite-phone-2" y="596" width="20" height="20"/><view id="sprite-phone-2-svg" viewBox="0 596 20 20"/><symbol id="sprite-play-control-small" viewBox="0 0 13 16"><title>Play Conrol Icon</title><path fill="#B88A1A" fill-rule="evenodd" d="M1.496.855l10.985 6.277a1 1 0 010 1.736L1.496 15.145A1 1 0 010 14.277V1.723A1 1 0 011.496.855z"/></symbol><use xlink:href="#sprite-play-control-small" y="616" width="13" height="16"/><view id="sprite-play-control-small-svg" viewBox="0 616 13 16"/><symbol id="sprite-play-control-white" viewBox="0 0 40 57"><title>Play Control Icon</title><path fill="#FFF" d="M3.5 51.016l30.952-22.534L3.5 5.948v45.068zm36.048-22.534L.5 56.912V.052l39.048 28.43z"/></symbol><use xlink:href="#sprite-play-control-white" y="632" width="40" height="57"/><view id="sprite-play-control-white-svg" viewBox="0 632 40 57"/><symbol id="sprite-search-header" viewBox="0 0 20 20"><title>Search icons</title><path fill="#FFF" fill-rule="evenodd" d="M12.671 14.496a8 8 0 111.465-1.363l3.488 3.487-1.414 1.415-3.539-3.539zM8 14A6 6 0 108 2a6 6 0 000 12z"/></symbol><use xlink:href="#sprite-search-header" y="689" width="18" height="18"/><view id="sprite-search-header-svg" viewBox="0 689 18 18"/><symbol id="sprite-search" viewBox="0 0 22 22"><title>search</title><path fill="#FFF" fill-rule="evenodd" d="M17.035 14.706L21.338 19l-2.005 1.945-.858.858-4.995-4.995a9 9 0 112.942-2.715l.613.613zM9 16A7 7 0 109 2a7 7 0 000 14z"/></symbol><use xlink:href="#sprite-search" y="707" width="22" height="22"/><view id="sprite-search-svg" viewBox="0 707 22 22"/><symbol id="sprite-swiper-lazy-black" viewBox="0 0 120 120"><title>swiper-lazy-black</title><defs><path id="a" stroke="#6c6c6c" stroke-width="11" stroke-linecap="round" d="M60 7v20"/></defs><use xlink:href="#a" opacity=".27"/><use xlink:href="#a" opacity=".27" transform="rotate(30 60 60)"/><use xlink:href="#a" opacity=".27" transform="rotate(60 60 60)"/><use xlink:href="#a" opacity=".27" transform="rotate(90 60 60)"/><use xlink:href="#a" opacity=".27" transform="rotate(120 60 60)"/><use xlink:href="#a" opacity=".27" transform="rotate(150 60 60)"/><use xlink:href="#a" opacity=".37" transform="rotate(180 60 60)"/><use xlink:href="#a" opacity=".46" transform="rotate(210 60 60)"/><use xlink:href="#a" opacity=".56" transform="rotate(240 60 60)"/><use xlink:href="#a" opacity=".66" transform="rotate(270 60 60)"/><use xlink:href="#a" opacity=".75" transform="rotate(300 60 60)"/><use xlink:href="#a" opacity=".85" transform="rotate(330 60 60)"/></symbol><use xlink:href="#sprite-swiper-lazy-black" y="729" width="120" height="120"/><view id="sprite-swiper-lazy-black-svg" viewBox="0 729 120 120"/><symbol id="sprite-swiper-lazy-white" viewBox="0 0 120 120"><title>swiper-lazy-white</title><defs><path id="a" stroke="#fff" stroke-width="11" stroke-linecap="round" d="M60 7v20"/></defs><use xlink:href="#a" opacity=".27"/><use xlink:href="#a" opacity=".27" transform="rotate(30 60 60)"/><use xlink:href="#a" opacity=".27" transform="rotate(60 60 60)"/><use xlink:href="#a" opacity=".27" transform="rotate(90 60 60)"/><use xlink:href="#a" opacity=".27" transform="rotate(120 60 60)"/><use xlink:href="#a" opacity=".27" transform="rotate(150 60 60)"/><use xlink:href="#a" opacity=".37" transform="rotate(180 60 60)"/><use xlink:href="#a" opacity=".46" transform="rotate(210 60 60)"/><use xlink:href="#a" opacity=".56" transform="rotate(240 60 60)"/><use xlink:href="#a" opacity=".66" transform="rotate(270 60 60)"/><use xlink:href="#a" opacity=".75" transform="rotate(300 60 60)"/><use xlink:href="#a" opacity=".85" transform="rotate(330 60 60)"/></symbol><use xlink:href="#sprite-swiper-lazy-white" y="849" width="120" height="120"/><view id="sprite-swiper-lazy-white-svg" viewBox="0 849 120 120"/><symbol id="sprite-swiper-nav-next-black" viewBox="0 0 27 44"><title>swiper-nav-next-black</title><path d="M27 22L5 44l-2.1-2.1L22.8 22 2.9 2.1 5 0l22 22z"/></symbol><use xlink:href="#sprite-swiper-nav-next-black" y="969" width="27" height="44"/><view id="sprite-swiper-nav-next-black-svg" viewBox="0 969 27 44"/><symbol id="sprite-swiper-nav-next-white" viewBox="0 0 27 44"><title>swiper-nav-next-white</title><path d="M27 22L5 44l-2.1-2.1L22.8 22 2.9 2.1 5 0l22 22z" fill="#FFF"/></symbol><use xlink:href="#sprite-swiper-nav-next-white" y="1013" width="27" height="44"/><view id="sprite-swiper-nav-next-white-svg" viewBox="0 1013 27 44"/><symbol id="sprite-swiper-nav-next" viewBox="0 0 27 44"><title>swiper-nav-next</title><path d="M27 22L5 44l-2.1-2.1L22.8 22 2.9 2.1 5 0l22 22z" fill="#007aff"/></symbol><use xlink:href="#sprite-swiper-nav-next" y="1057" width="27" height="44"/><view id="sprite-swiper-nav-next-svg" viewBox="0 1057 27 44"/><symbol id="sprite-swiper-nav-prev-black" viewBox="0 0 27 44"><title>swiper-nav-prev-black</title><path d="M0 22L22 0l2.1 2.1L4.2 22l19.9 19.9L22 44 0 22z"/></symbol><use xlink:href="#sprite-swiper-nav-prev-black" y="1101" width="27" height="44"/><view id="sprite-swiper-nav-prev-black-svg" viewBox="0 1101 27 44"/><symbol id="sprite-swiper-nav-prev-white" viewBox="0 0 27 44"><title>swiper-nav-prev-white</title><path d="M0 22L22 0l2.1 2.1L4.2 22l19.9 19.9L22 44 0 22z" fill="#FFF"/></symbol><use xlink:href="#sprite-swiper-nav-prev-white" y="1145" width="27" height="44"/><view id="sprite-swiper-nav-prev-white-svg" viewBox="0 1145 27 44"/><symbol id="sprite-swiper-nav-prev" viewBox="0 0 27 44"><title>swiper-nav-prev</title><path d="M0 22L22 0l2.1 2.1L4.2 22l19.9 19.9L22 44 0 22z" fill="#007aff"/></symbol><use xlink:href="#sprite-swiper-nav-prev" y="1189" width="27" height="44"/><view id="sprite-swiper-nav-prev-svg" viewBox="0 1189 27 44"/><symbol id="sprite-tip-red" viewBox="0 0 12 19"><title>Tip Location Icon</title><path d="M6.501.02a6.991 6.991 0 00-.896-.01C1.279.26-1.277 4.91.653 8.707l4.728 9.984c.207.407.8.412 1.014.008l4.904-9.902C13.295 5.035 10.82.342 6.5.019zm-.523 8.436C4.564 8.444 3.428 7.313 3.44 5.93c.012-1.384 1.169-2.495 2.582-2.484 1.415.012 2.551 1.144 2.539 2.527-.012 1.384-1.168 2.496-2.583 2.484z" fill="#AB1410"/></symbol><use xlink:href="#sprite-tip-red" y="1233" width="12" height="19"/><view id="sprite-tip-red-svg" viewBox="0 1233 12 19"/><symbol id="sprite-twitter" viewBox="0 0 21 18"><title>Twitter</title><path fill="#B88A1A" fill-rule="evenodd" d="M20.42.333a8.333 8.333 0 01-2.737 1.1A4.198 4.198 0 0014.538 0c-2.377 0-4.306 2.035-4.306 4.544 0 .356.037.702.11 1.035-3.58-.19-6.754-1.997-8.88-4.75a4.73 4.73 0 00-.583 2.288c0 1.575.76 2.966 1.917 3.781a4.142 4.142 0 01-1.953-.566v.055c0 2.203 1.485 4.04 3.458 4.456a4.085 4.085 0 01-1.946.08c.548 1.804 2.138 3.118 4.024 3.154-1.475 1.219-3.333 1.945-5.351 1.945-.348 0-.692-.02-1.028-.062A11.756 11.756 0 006.605 18c7.925 0 12.258-6.923 12.258-12.928 0-.198-.004-.395-.011-.59A8.992 8.992 0 0021 2.132a8.259 8.259 0 01-2.474.715A4.519 4.519 0 0020.421.333"/></symbol><use xlink:href="#sprite-twitter" y="1252" width="21" height="18"/><view id="sprite-twitter-svg" viewBox="0 1252 21 18"/><symbol fill="none" stroke="currentColor" stroke-width="2" stroke-linecap="round" stroke-linejoin="round" id="sprite-user" viewBox="0 0 24 24"><title>user</title><path d="M20 21v-2a4 4 0 00-4-4H8a4 4 0 00-4 4v2"/><circle cx="12" cy="7" r="4"/></symbol><use fill="none" stroke="currentColor" stroke-width="2" stroke-linecap="round" stroke-linejoin="round" xlink:href="#sprite-user" y="1270" width="24" height="24"/><view id="sprite-user-svg" viewBox="0 1270 24 24"/></svg>