<?xml version="1.0" encoding="UTF-8" standalone="no"?>
<svg
   xmlns:dc="http://purl.org/dc/elements/1.1/"
   xmlns:cc="http://creativecommons.org/ns#"
   xmlns:rdf="http://www.w3.org/1999/02/22-rdf-syntax-ns#"
   xmlns:svg="http://www.w3.org/2000/svg"
   xmlns="http://www.w3.org/2000/svg"
   viewBox="0 0 768 108"
   height="108"
   width="768"
   xml:space="preserve"
   id="svg2"
   version="1.1"><metadata
     id="metadata8"><rdf:RDF><cc:Work
         rdf:about=""><dc:format>image/svg+xml</dc:format><dc:type
           rdf:resource="http://purl.org/dc/dcmitype/StillImage" /></cc:Work></rdf:RDF></metadata><defs
     id="defs6" /><g
     transform="matrix(1.3333333,0,0,-1.3333333,0,108)"
     id="g10"><g
       transform="scale(0.1)"
       id="g12"><path
         id="path14"
         style="fill:#231f20;fill-opacity:1;fill-rule:nonzero;stroke:none"
         d="m 120.492,727.355 c 21.219,0 26.449,-3.269 26.449,-27.964 0,-25.036 -11.687,-24.887 -34.507,-24.887 H 68.0078 v 52.851 z M 50.8672,611.547 h 17.1406 v 50.098 h 59.1442 c 36.75,0 36.957,28.156 36.957,39.648 0,22.137 -6.867,38.945 -36.148,38.945 H 50.8672 V 611.547" /><path
         id="path16"
         style="fill:#231f20;fill-opacity:1;fill-rule:nonzero;stroke:none"
         d="m 222.246,611.547 h -15.961 v 128.691 h 15.961 V 611.547" /><path
         id="path18"
         style="fill:#231f20;fill-opacity:1;fill-rule:nonzero;stroke:none"
         d="m 309.047,621.504 c -18.371,0 -26.645,0.832 -26.645,18.008 0,14.593 7.676,15.617 26.645,15.617 20.191,0 32.074,0.144 32.074,-16.836 0,-16.473 -16.125,-16.789 -32.074,-16.789 z m 48.449,-9.957 v 61.418 c 0.195,27.449 -19.387,29.867 -46.031,29.672 -23.633,0.195 -42.383,-1.344 -42.383,-24.524 v -1.902 h 16.543 v 3.125 c -0.211,12.32 15.141,12.32 27.656,12.32 17.957,0 28.274,-1.539 28.274,-18.008 v -16.64 h -1.028 c -2.211,8.222 -22.8,9.101 -33.308,9.101 -26.242,0 -41.367,-3.437 -41.367,-28.332 0,-23.496 16.55,-27.254 40.355,-27.254 13.324,0 28.891,0.317 34.914,10.637 l 0.434,-0.363 v -9.25 h 15.941" /><path
         id="path20"
         style="fill:#231f20;fill-opacity:1;fill-rule:nonzero;stroke:none"
         d="m 488.906,678.113 h -16.558 v 3.442 c 0,9.074 -8.075,9.074 -24.813,9.074 -20.012,0 -29.699,0.195 -29.699,-10.977 0,-16.132 5.262,-14.933 21.805,-15.593 27.246,-1.387 52.082,2.195 52.082,-27.11 0,-25.402 -20.594,-26.426 -44.188,-26.426 -23.031,0 -47.055,1.024 -47.055,21.082 v 8.418 h 16.551 v -7.027 c 0,-8.562 6.274,-10.469 30.504,-10.469 10.883,0 27.645,-2.047 27.645,13.914 0,16.786 -8.293,13.711 -27.645,14.735 -23.031,1.367 -46.242,-0.684 -46.242,24.887 0,26.062 17.559,26.574 46.242,26.574 18.543,0 41.371,-0.66 41.371,-21.082 v -3.442" /><path
         id="path22"
         style="fill:#231f20;fill-opacity:1;fill-rule:nonzero;stroke:none"
         d="m 589.629,690.629 h -40.977 v -57.117 c 0.203,-9.785 3.219,-12.008 14.934,-12.008 14.93,0 14.93,6.684 14.93,15.25 v 6.715 h 15.14 v -6.715 c 0,-17.809 -8.676,-26.231 -30.465,-26.231 -24.836,0 -30.5,6.004 -30.5,27.11 v 52.996 h -14.128 v 10.98 h 14.128 v 21.821 h 15.961 v -21.821 h 40.977 v -10.98" /><path
         id="path24"
         style="fill:#231f20;fill-opacity:1;fill-rule:nonzero;stroke:none"
         d="m 702.875,656.492 c 0,-24.715 -1.016,-34.988 -29.27,-34.988 -23.425,0 -29.667,5.809 -29.667,34.988 0,25.719 1.804,35.164 29.667,35.164 25.422,0 29.27,-5.636 29.27,-35.164 z M 627.59,611.547 h 15.93 v 10.641 l 0.418,0.339 c 5.851,-9.785 19.773,-12.004 34.109,-12.004 36.75,0 41.371,16.645 41.371,45.969 0,28.137 -4.832,46.145 -41.371,46.145 -12.324,0 -29.063,-1.172 -34.109,-12.692 h -0.418 v 50.293 H 627.59 V 611.547" /><path
         id="path26"
         style="fill:#231f20;fill-opacity:1;fill-rule:nonzero;stroke:none"
         d="m 835.09,638.293 c 0,16.98 -11.91,16.836 -32.086,16.836 -18.984,0 -26.649,-1.024 -26.649,-15.617 0,-17.176 8.274,-18.008 26.649,-18.008 15.934,0 32.086,0.316 32.086,16.789 z m 0.414,-26.746 v 9.25 l -0.414,0.363 c -6.051,-10.32 -21.594,-10.637 -34.918,-10.637 -23.817,0 -40.383,3.758 -40.383,27.254 0,24.895 15.152,28.332 41.395,28.332 10.48,0 31.074,-0.879 33.308,-9.101 h 1.012 v 16.64 c 0,16.469 -10.309,18.008 -28.258,18.008 -12.516,0 -27.875,0 -27.672,-12.32 v -3.125 h -16.543 v 1.902 c 0,23.18 18.766,24.719 42.383,24.524 26.649,0.195 46.219,-2.223 46.024,-29.672 v -61.418 h -15.934" /><path
         id="path28"
         style="fill:#231f20;fill-opacity:1;fill-rule:nonzero;stroke:none"
         d="m 969.926,623.555 h -0.391 c -5.664,-10.981 -19.18,-13.032 -33.109,-13.032 -28.063,0 -37.957,9.59 -37.957,33.262 v 57.824 h 15.961 v -57.824 c 0,-14.57 1.207,-22.281 21.8,-22.281 22.399,0 33.903,3.074 33.903,24.519 v 55.586 h 15.957 v -90.062 h -16.164 v 12.008" /><path
         id="path30"
         style="fill:#231f20;fill-opacity:1;fill-rule:nonzero;stroke:none"
         d="m 1087.48,730.969 c 30.37,0 54.75,-24.696 54.75,-54.758 0,-30.699 -24.38,-55.414 -54.75,-55.414 -30.53,0 -55.06,24.715 -55.06,55.414 0,30.062 24.53,54.758 55.06,54.758 z m 0,10.297 c -36.37,0 -65.7,-29.356 -65.7,-65.371 0,-36.383 29.33,-65.372 65.7,-65.372 36.22,0 65.38,28.989 65.38,65.372 0,36.015 -29.16,65.371 -65.38,65.371 z m 10.82,-68.961 c 13.04,0.316 22.81,6.324 22.81,20.742 0,15.785 -12.86,19.398 -26.08,19.398 h -31.92 v -73.273 h 10.31 v 32.062 h 14.24 l 20.93,-32.062 h 11.5 z m -24.88,31.355 h 19.56 c 7.73,0 17.84,-0.828 17.84,-10.469 0,-7.171 -3.43,-13.171 -18.18,-13.171 h -19.22 v 23.64" /><path
         id="path32"
         style="fill:#231f20;fill-opacity:1;fill-rule:nonzero;stroke:none"
         d="m 1328.24,727.355 h 49.05 v 12.883 h -115.26 v -12.883 h 49.06 V 611.547 h 17.15 v 115.808" /><path
         id="path34"
         style="fill:#231f20;fill-opacity:1;fill-rule:nonzero;stroke:none"
         d="m 1406.35,664.57 c 1.22,20.766 2.22,27.086 31.1,27.086 24.22,0 27.85,-1.539 28.66,-27.086 z m 59.95,-25.765 v -3.391 c 0,-12.715 -7.05,-13.91 -28.85,-13.91 -28.68,0 -31.1,3.59 -31.1,32.09 h 76.31 v 9.078 c 0,33.281 -10.89,39.965 -45.21,39.965 -37.95,0 -47.65,-8.735 -47.65,-46.145 0,-34.304 6.25,-45.969 47.65,-45.969 23.61,0 45.21,1.196 45.21,25.04 v 3.242 h -16.36" /><path
         id="path36"
         style="fill:#231f20;fill-opacity:1;fill-rule:nonzero;stroke:none"
         d="m 1599.53,644.148 v -4.464 c 0,-16.325 -7.26,-18.18 -27.24,-18.18 -31.1,0 -32.29,7.711 -32.29,33.109 0,28.821 0.59,37.043 28.85,37.043 18.37,0 28.88,-0.316 28.88,-16.617 v -2.734 h 15.93 v 2.367 c 0,25.598 -20.18,27.965 -45.82,27.965 -38.36,0 -44.41,-14.934 -44.41,-44.239 0,-33.453 3.03,-47.875 47.04,-47.875 25.23,0 45.01,3.247 45.01,28.649 v 4.976 h -15.95" /><path
         id="path38"
         style="fill:#231f20;fill-opacity:1;fill-rule:nonzero;stroke:none"
         d="m 1673.82,690.629 h 0.41 c 5.04,10.836 20.58,12.008 32.7,12.008 27.24,0 40.37,-6.149 39.96,-31.207 v -59.883 h -15.94 v 60.902 c 0,16.477 -7.47,19.207 -25.43,19.207 -26.06,0 -31.7,-6.832 -31.7,-27.597 v -52.512 h -15.94 v 128.691 h 15.94 v -49.609" /><path
         id="path40"
         style="fill:#231f20;fill-opacity:1;fill-rule:nonzero;stroke:none"
         d="m 1811.09,690.629 h 0.4 c 5.06,10.836 20.59,12.008 32.7,12.008 27.26,0 40.37,-6.149 39.98,-31.207 v -59.883 h -15.96 v 60.902 c 0,16.477 -7.47,19.207 -25.43,19.207 -26.03,0 -31.69,-6.832 -31.69,-27.597 v -52.512 h -15.96 v 90.062 h 15.96 v -10.98" /><path
         id="path42"
         style="fill:#231f20;fill-opacity:1;fill-rule:nonzero;stroke:none"
         d="m 1945.54,656.492 c 0,31.406 1.99,35.164 30.47,35.164 28.46,0 30.47,-3.758 30.47,-35.164 0,-31.226 -2.01,-34.988 -30.47,-34.988 -28.48,0 -30.47,3.762 -30.47,34.988 z m -16.58,0 c 0,-37.914 7.69,-45.969 47.05,-45.969 39.35,0 47.05,8.055 47.05,45.969 0,38.094 -7.7,46.145 -47.05,46.145 -39.36,0 -47.05,-8.051 -47.05,-46.145" /><path
         id="path44"
         style="fill:#231f20;fill-opacity:1;fill-rule:nonzero;stroke:none"
         d="m 2083.39,740.238 h -15.96 V 611.547 h 15.96 v 128.691" /><path
         id="path46"
         style="fill:#231f20;fill-opacity:1;fill-rule:nonzero;stroke:none"
         d="m 2144.15,656.492 c 0,31.406 2.03,35.164 30.48,35.164 28.48,0 30.49,-3.758 30.49,-35.164 0,-31.226 -2.01,-34.988 -30.49,-34.988 -28.45,0 -30.48,3.762 -30.48,34.988 z m -16.55,0 c 0,-37.914 7.67,-45.969 47.03,-45.969 39.35,0 47.03,8.055 47.03,45.969 0,38.094 -7.68,46.145 -47.03,46.145 -39.36,0 -47.03,-8.051 -47.03,-46.145" /><path
         id="path48"
         style="fill:#231f20;fill-opacity:1;fill-rule:nonzero;stroke:none"
         d="m 2308.25,621.504 c -30.87,0 -29.05,13.398 -29.05,34.988 0,23.676 -0.4,35.164 29.05,35.164 28.69,0 30.7,-10.101 30.7,-35.164 0,-20.051 0,-34.988 -30.7,-34.988 z m 46.65,80.105 h -15.95 v -11.296 l -0.4,-0.196 c -6.28,10.813 -19.38,12.52 -34.11,12.52 -36.37,0 -41.78,-16.106 -41.78,-46.145 0,-30.887 7.47,-45.969 41.78,-45.969 12.52,0 29.66,1.196 34.11,12.176 h 0.4 V 601.91 c -0.2,-17.64 -11.72,-19.347 -30.7,-19.347 -16.73,0 -26.43,1.027 -26.43,18.328 h -15.95 c -1.6,-26.063 17.78,-29.309 42.38,-29.309 25.64,0 46.65,5.293 46.65,29.309 v 100.718" /><path
         id="path50"
         style="fill:#231f20;fill-opacity:1;fill-rule:nonzero;stroke:none"
         d="m 2446.74,605.203 c -5.63,-17.004 -10.29,-33.621 -35.72,-33.621 -2.62,0 -5.05,0.512 -7.27,0.828 v 10.473 c 1.81,-0.32 3.63,-0.516 5.66,-0.516 16.55,0 18.37,18.887 21.98,29.18 h -5.65 l -38.35,90.062 h 16.36 l 32.7,-80.105 h 0.41 l 23.82,80.105 h 16.54 l -30.48,-96.406" /><path
         id="path52"
         style="fill:#231f20;fill-opacity:1;fill-rule:nonzero;stroke:none"
         d="m 2718.35,184.23 c -62.52,0 -112.67,49.598 -112.67,112.774 0,62.437 49.51,113.387 112.67,113.387 62.5,0 113.4,-50.95 113.4,-113.387 0,-62.524 -50.9,-112.774 -113.4,-112.774" /><path
         id="path54"
         style="fill:#231f20;fill-opacity:1;fill-rule:nonzero;stroke:none"
         d="m 3026.53,184.23 c -62.36,0 -112.65,49.598 -112.65,112.774 0,62.437 49.55,113.387 112.65,113.387 62.45,0 113.46,-50.95 113.46,-113.387 0,-62.524 -51.01,-112.774 -113.46,-112.774" /><path
         id="path56"
         style="fill:#231f20;fill-opacity:1;fill-rule:nonzero;stroke:none"
         d="M 276.754,516.68 V 77.9102 H 47.207 V 516.68 h 229.547" /><path
         id="path58"
         style="fill:#231f20;fill-opacity:1;fill-rule:nonzero;stroke:none"
         d="M 878.34,516.68 V 77.9102 H 678.168 L 558.801,277.527 V 77.9102 H 367.832 V 516.68 H 558.801 L 687.395,319.324 V 516.68 H 878.34" /><path
         id="path60"
         style="fill:#231f20;fill-opacity:1;fill-rule:nonzero;stroke:none"
         d="m 1453.42,384.551 h -213.06 v 31.722 c 0,14.836 -2.67,24.207 -7.91,28.329 -5.31,4.003 -14.16,6.05 -26.52,6.05 -13.43,0 -23.64,-2.707 -30.53,-8.125 -6.9,-5.418 -10.32,-13.519 -10.32,-24.379 0,-14.32 4.12,-24.964 12.36,-31.964 7.92,-7.344 29.5,-16.465 64.82,-27.329 101.36,-31.179 165.26,-56.484 191.68,-75.906 26.44,-19.109 39.67,-50.222 39.67,-93.094 0,-31.332 -7.38,-54.457 -22.04,-69.242 -14.74,-14.812 -43.07,-27.1638 -85.11,-37.07 -42.05,-9.8828 -90.97,-14.8321 -146.8,-14.8321 -61.27,0 -113.55,5.7813 -156.92,17.2579 -43.34,11.4843 -71.662,26.1332 -85.029,43.8442 -13.426,17.738 -20.109,42.968 -20.109,75.609 v 28.57 h 212.968 v -52.359 c 0,-15.879 3.03,-26.203 9.06,-30.742 5.97,-4.536 16.61,-6.953 31.92,-6.953 15.27,0 26.68,2.925 34.11,8.804 7.48,5.91 11.22,14.477 11.22,25.844 0,25.477 -7.13,42.144 -21.47,49.922 -14.78,7.808 -50.59,21.226 -107.53,40.097 -56.99,19.391 -94.75,33.297 -113.25,41.715 -18.595,8.52 -33.9,20.207 -46.118,35.215 -12.18,14.934 -18.254,34.184 -18.254,57.61 0,33.453 8.543,58.046 25.742,73.57 17.203,15.469 45,27.523 83.29,36.234 38.4,8.711 84.71,12.953 139,12.953 59.38,0 109.89,-4.754 151.7,-14.269 41.77,-9.492 69.49,-21.528 83.01,-35.871 13.59,-14.496 20.42,-39.09 20.42,-73.938 v -17.273" /><path
         id="path62"
         style="fill:#231f20;fill-opacity:1;fill-rule:nonzero;stroke:none"
         d="M 2065.54,516.68 V 223.289 c 0,-33.277 -2.13,-56.656 -6.52,-69.961 -4.39,-13.418 -17.2,-27.183 -38.6,-41.504 -21.35,-14.2927 -49.53,-24.9763 -84.45,-32.2263 -34.99,-7.2461 -76.2,-10.8868 -123.67,-10.8868 -52.53,0 -98.94,4.2852 -139.2,13.0079 -40.19,8.6406 -70.22,19.9142 -90.14,33.8942 -19.96,13.907 -31.74,28.567 -35.33,43.989 -3.65,15.371 -5.44,47.8 -5.44,97.363 V 516.68 h 229.52 V 188.289 c 0,-19.019 2.09,-31.172 6.11,-36.441 4.13,-5.278 12.32,-7.91 24.77,-7.91 14.06,0 23.26,2.878 27.29,8.66 4.11,5.793 6.09,19.668 6.09,41.711 V 516.68 h 229.57" /><path
         id="path64"
         style="fill:#231f20;fill-opacity:1;fill-rule:nonzero;stroke:none"
         d="m 3977.57,516.68 h 380.14 v -88.063 h -150.59 v -82.711 h 141.43 v -84.453 h -141.43 v -95.406 h 167.13 V 77.9102 H 3977.57 V 516.68" /><path
         id="path66"
         style="fill:#231f20;fill-opacity:1;fill-rule:nonzero;stroke:none"
         d="m 4974.35,325.793 h -229.47 v 75.594 c 0,22.133 -2.43,35.941 -7.33,41.215 -4.91,5.343 -15.61,8.05 -32.15,8.05 -18.73,0 -30.59,-3.293 -35.64,-9.953 -5.04,-6.734 -7.54,-20.937 -7.54,-42.894 v -202.7 c 0,-21.128 2.5,-34.988 7.54,-41.433 5.05,-6.516 16.4,-9.734 34.04,-9.734 16.97,0 27.97,3.296 33.24,9.8 5.19,6.45 7.84,21.528 7.84,45.395 v 55.078 h 229.47 v -17.5 c 0,-45.395 -6.45,-77.441 -19.24,-96.43 -12.97,-19.109 -41.37,-35.801 -85.51,-50.1169 -44.14,-14.3047 -98.46,-21.4532 -163.08,-21.4532 -67.13,0 -122.49,6.0469 -166.04,18.2032 -43.62,12.0312 -72.54,28.8009 -86.59,50.1489 -14.21,21.328 -21.3,53.535 -21.3,96.542 v 128.473 c 0,31.496 2.27,55.219 6.58,71.106 4.39,15.882 17.35,31.23 38.87,45.796 21.68,14.641 51.68,26.133 89.9,34.481 38.2,8.348 82.34,12.441 132.05,12.441 67.5,0 123.28,-6.437 167.13,-19.472 43.9,-12.93 72.76,-29.129 86.58,-48.36 13.77,-19.347 20.65,-49.511 20.65,-90.648 v -41.629" /><path
         id="path68"
         style="fill:#231f20;fill-opacity:1;fill-rule:nonzero;stroke:none"
         d="M 5600.73,516.68 5469.41,318.816 5613.47,77.9102 H 5378.56 L 5285.75,266.113 V 77.9102 H 5056.18 V 516.68 h 229.57 V 346.34 l 101.89,170.34 h 213.09" /><path
         id="path70"
         style="fill:#231f20;fill-opacity:1;fill-rule:nonzero;stroke:none"
         d="M 2384.03,166.047 V 388.23 l 107.61,128.45 h -337.2 V 77.9102 h 369.11 v 88.1368 h -139.52" /><path
         id="path72"
         style="fill:#231f20;fill-opacity:1;fill-rule:nonzero;stroke:none"
         d="m 3883.64,445.746 c -4.98,14.059 -17.55,26.867 -37.91,38.457 -20.21,11.563 -49.86,19.891 -88.65,24.938 -38.94,5.121 -113.45,7.539 -223.77,7.539 H 3257.84 L 3362.45,388.23 V 165.754 l -0.8,0.293 H 3222.06 V 77.9102 h 140.39 228.69 59.28 c 54.69,0 95.53,1.3945 122.69,4.25 27.1,2.9961 49.77,8.1992 68.31,15.7578 18.44,7.59 31.4,18.059 38.71,31.254 7.48,13.23 11.21,39.461 11.21,78.887 v 154.019 c 0,41.652 -2.56,69.543 -7.7,83.668 z M 3661.77,217.063 c 0,-29.329 -3.66,-47.29 -11.06,-53.872 -7.24,-6.714 -26.93,-10.007 -58.69,-10.007 v 288.269 c 24.09,0 40.55,-1.34 49.34,-4.051 8.71,-2.711 14.25,-6.804 16.75,-12.441 2.43,-5.566 3.66,-18.301 3.66,-38.066 V 217.063" /><path
         id="path74"
         style="fill:#231f20;fill-opacity:1;fill-rule:nonzero;stroke:none"
         d="m 5623.59,134.148 c 0,26.848 20.25,47.075 46.14,47.075 25.65,0 45.87,-20.227 45.87,-47.075 0,-27.3 -20.22,-47.3785 -45.87,-47.3785 -25.89,0 -46.14,20.0785 -46.14,47.3785 z m 46.14,-56.8238 c 30.91,0 57.27,24.0158 57.27,56.8238 0,32.5 -26.36,56.516 -57.27,56.516 -31.17,0 -57.57,-24.016 -57.57,-56.516 0,-32.808 26.4,-56.8238 57.57,-56.8238 z m -11.98,52.3318 h 11.4 l 17.23,-28.316 h 11.11 l -18.6,28.765 c 9.59,1.196 16.94,6.29 16.94,17.954 0,12.937 -7.64,18.589 -23.08,18.589 h -24.89 V 101.34 h 9.89 z m 0,8.379 v 20.254 h 13.49 c 6.88,0 14.24,-1.519 14.24,-9.59 0,-10.078 -7.52,-10.664 -15.88,-10.664 h -11.85" /></g></g></svg>