<?xml version="1.0"?>
<svg width="553" height="155" xmlns="http://www.w3.org/2000/svg" xmlns:svg="http://www.w3.org/2000/svg">
 <metadata id="metadata8">image/svg+xml</metadata>
 <defs>
  <clipPath clipPathUnits="userSpaceOnUse" id="clipPath18">
   <path d="m-75.000008,1121.250031l612,0l0,-792l-612,0l0,792z" id="path16"/>
  </clipPath>
 </defs>
 <g class="layer">
  <title>Layer 1</title>
  <g id="g10" transform="matrix(1.33333 0 0 -1.33333 0 1056)">
   <g id="g12">
    <g clip-path="url(#clipPath18)" id="g14">
     <path d="m2.619992,710.327031l8.877,-14.777l24.709,0.137l4.605,3.334l14.262,-20.242l354.455,-0.011l0,11.981l-348.922,0.401l-10.378,15.19l5.154,4.055l22.681,65.639l-9.415,13.747l-22.82,0l-20.206,-14.297l-23.002,-65.157zm40.849,64.381l17.778,0.18l-20.161,-55.076l-6.873,9.255l-4.674,-13.562l2.108,-3.665l-11.639,0l23.461,62.868z" fill="#20A6C1" fill-rule="nonzero" id="path20"/>
     <path d="m105.051992,768.839031l16.863,0l-22.453,-62.224l-14.112,-10.904l-18.284,-0.093l-7.491,10.825l22.109,62.396l16.953,0l-21.627,-59.2l6.965,0l21.077,59.2z" fill="#20A6C1" fill-rule="nonzero" id="path22"/>
     <path d="m126.130992,722.836031l6.873,0l6.873,29.052l-13.746,-29.052zm7.881,46.003l23.918,0l-15.762,-73.221l-15.946,0l3.207,13.288l-9.164,0l-6.391,-13.449l-15.397,0l35.535,73.382z" fill="#20A6C1" fill-rule="nonzero" id="path24"/>
     <path d="m167.758992,710.326031l6.53,0l16.083,43.989l-7.08,0l-15.533,-43.989zm4.674,58.423l28.317,0l6.942,-10.997l-17.32,-50.313l-15.053,-11.752l-29.417,0l26.531,73.062z" fill="#20A6C1" fill-rule="nonzero" id="path26"/>
     <path d="m204.381992,737.601031l17.344,0l-3.441,-9.221l-17.666,0l3.763,9.221z" fill="#20A6C1" fill-rule="nonzero" id="path28"/>
     <path d="m235.859992,768.757031l16.197,0l-20.878,-58.826l14.774,0l-4.907,-14.225l-30.79,0l25.604,73.051z" fill="#20A6C1" fill-rule="nonzero" id="path30"/>
     <path d="m265.527992,710.146031l6.884,0l15.895,44.944l-6.548,0l-16.231,-44.944zm0.335,48.414l14.329,10.243l19.421,0l6.604,-11.363l-18.302,-50.372l-14.329,-11.588l-17.232,0l-8.289,11.253l17.798,51.827z" fill="#20A6C1" fill-rule="nonzero" id="path32"/>
     <path d="m312.073992,759.036031l13.745,9.528l19.705,0l6.14,-10.172l-5.959,-17.136l-15.943,0l4.672,14.206l-6.69,0l-16.588,-44.997l7.241,0l6.69,16.587l15.489,0l-6.599,-19.244l-15.121,-11.733l-16.864,0l-7.881,10.816l17.963,52.145z" fill="#20A6C1" fill-rule="nonzero" id="path34"/>
     <path d="m361.833992,768.839031l16.497,0l-10.355,-28.225l20.984,28.135l16.954,0l-25.658,-33.177l1.831,-39.861l-17.044,0l-1.651,29.782l-11.638,-29.692l-15.945,0l26.025,73.038z" fill="#20A6C1" fill-rule="nonzero" id="path36"/>
     <path d="m404.534992,741.617031c1.08,0 2.596,-0.18 2.596,1.292c0,1.092 -0.901,1.238 -1.838,1.238l-2.129,0l0,-2.53l1.371,0zm-1.371,-4.382l-0.99,0l0,7.821l3.336,0c2.019,0 2.704,-0.765 2.704,-2.166c0,-1.51 -1.047,-2.072 -2.397,-2.182l2.309,-3.473l-1.122,0l-2.18,3.473l-1.66,0l0,-3.473zm7.232,3.875c0,3.327 -2.38,5.726 -5.68,5.726c-3.32,0 -5.717,-2.399 -5.717,-5.726c0,-3.365 2.397,-5.767 5.717,-5.767c3.3,0 5.68,2.402 5.68,5.767m-12.481,0c0,3.746 3.049,6.819 6.801,6.819c3.733,0 6.763,-3.073 6.763,-6.819c0,-3.784 -3.03,-6.858 -6.763,-6.858c-3.752,0 -6.801,3.074 -6.801,6.858" fill="#20A6C1" fill-rule="nonzero" id="path38"/>
    </g>
   </g>
  </g>
 </g>
</svg>